<svg xmlns="http://www.w3.org/2000/svg" xmlns:xlink="http://www.w3.org/1999/xlink" width="324" zoomAndPan="magnify" viewBox="0 0 242.87999 243.75" height="325" preserveAspectRatio="xMidYMid meet" version="1.2"><defs/><g id="798af5b8c3"><g style="fill:#222222;fill-opacity:1;"><g transform="translate(74.715535, 95.391354)"><path style="stroke:none" d="M 44.257812 -16.75 C 45.214844 -16.242188 46.117188 -15.59375 46.957031 -14.8125 C 47.875 -13.953125 48.546875 -12.917969 48.972656 -11.699219 C 49.429688 -10.386719 49.378906 -8.953125 48.816406 -7.390625 L 47.496094 -7.867188 L 48.839844 -7.457031 C 48.226562 -5.429688 46.96875 -3.925781 45.066406 -2.945312 C 43.199219 -1.984375 41.242188 -1.769531 39.195312 -2.3125 C 37.835938 -2.695312 36.523438 -3.21875 35.261719 -3.890625 C 34.078125 -4.519531 32.90625 -5.164062 31.746094 -5.820312 C 30.179688 -6.730469 28.617188 -7.660156 27.058594 -8.617188 C 25.515625 -9.5625 23.996094 -10.484375 22.5 -11.382812 C 21.691406 -11.886719 20.898438 -12.375 20.128906 -12.847656 C 19.351562 -13.324219 18.5625 -13.816406 17.757812 -14.316406 C 17.554688 -14.4375 17.34375 -14.554688 17.125 -14.664062 L 16.300781 -15.074219 L 16.929688 -16.332031 L 16.4375 -15.015625 C 15.9375 -15.203125 15.492188 -15.425781 15.101562 -15.6875 L 15.882812 -16.855469 L 15.289062 -15.582031 L 14.164062 -16.105469 L 14.757812 -17.378906 L 16.15625 -17.257812 L 15.78125 -12.878906 L 15.773438 -12.84375 C 15.628906 -11.765625 15.503906 -10.710938 15.40625 -9.679688 L 15.105469 -6.578125 L 15.101562 -6.554688 C 14.8125 -4.40625 14.085938 -2.722656 12.929688 -1.503906 C 11.691406 -0.199219 10.136719 0.417969 8.265625 0.355469 C 6.414062 0.292969 4.894531 -0.417969 3.703125 -1.769531 C 2.574219 -3.050781 1.921875 -4.742188 1.746094 -6.851562 C 0.738281 -20.316406 1.742188 -34.976562 4.761719 -50.828125 C 5.238281 -53.390625 6.210938 -55.105469 7.675781 -55.972656 L 7.695312 -55.984375 L 7.71875 -55.996094 C 8.476562 -56.410156 9.351562 -56.617188 10.339844 -56.617188 C 11.390625 -56.617188 12.585938 -56.390625 13.929688 -55.945312 L 13.96875 -55.933594 L 14.007812 -55.917969 C 14.238281 -55.824219 14.503906 -55.808594 14.796875 -55.871094 C 15.292969 -55.980469 15.632812 -56.070312 15.808594 -56.140625 C 21.484375 -58.347656 27.609375 -58.667969 34.1875 -57.101562 C 37.800781 -56.238281 40.71875 -54.65625 42.945312 -52.347656 C 45.164062 -50.042969 46.667969 -47.050781 47.445312 -43.367188 C 48.179688 -39.972656 47.984375 -36.835938 46.855469 -33.949219 C 45.738281 -31.089844 43.71875 -28.515625 40.792969 -26.234375 L 40.730469 -26.1875 C 40.066406 -25.730469 39.378906 -25.273438 38.667969 -24.8125 C 37.960938 -24.359375 37.207031 -23.882812 36.402344 -23.378906 L 36.378906 -23.367188 L 36.355469 -23.351562 C 36.023438 -23.160156 35.664062 -22.945312 35.28125 -22.707031 L 34.082031 -21.957031 L 32.9375 -21.269531 L 32.214844 -22.472656 L 32.9375 -23.679688 L 34.074219 -22.996094 L 35.738281 -21.9375 C 36.277344 -21.59375 36.792969 -21.273438 37.28125 -20.980469 L 37.308594 -20.964844 L 37.335938 -20.945312 C 38.519531 -20.15625 39.675781 -19.417969 40.808594 -18.730469 C 41.9375 -18.042969 43.089844 -17.378906 44.269531 -16.742188 Z M 42.929688 -14.273438 C 41.710938 -14.933594 40.515625 -15.617188 39.347656 -16.328125 C 38.183594 -17.039062 36.992188 -17.796875 35.777344 -18.609375 L 36.558594 -19.777344 L 35.835938 -18.574219 C 35.324219 -18.878906 34.789062 -19.210938 34.230469 -19.566406 L 32.582031 -20.613281 L 33.335938 -21.800781 L 32.613281 -20.59375 L 29.484375 -22.472656 L 32.59375 -24.339844 L 33.789062 -25.089844 C 34.207031 -25.347656 34.597656 -25.582031 34.960938 -25.792969 L 35.660156 -24.570312 L 34.914062 -25.761719 C 35.707031 -26.257812 36.453125 -26.730469 37.148438 -27.175781 C 37.832031 -27.617188 38.492188 -28.058594 39.128906 -28.5 L 39.929688 -27.34375 L 39.066406 -28.453125 C 41.585938 -30.414062 43.308594 -32.589844 44.238281 -34.972656 C 45.160156 -37.332031 45.3125 -39.933594 44.699219 -42.785156 C 44.03125 -45.941406 42.769531 -48.480469 40.921875 -50.398438 C 39.078125 -52.308594 36.613281 -53.632812 33.535156 -54.371094 C 27.527344 -55.800781 21.964844 -55.519531 16.851562 -53.53125 C 16.53125 -53.402344 16.042969 -53.269531 15.394531 -53.128906 C 14.539062 -52.941406 13.730469 -53 12.960938 -53.308594 L 13.484375 -54.613281 L 13.039062 -53.28125 C 11.984375 -53.632812 11.085938 -53.808594 10.339844 -53.808594 C 9.828125 -53.808594 9.402344 -53.714844 9.0625 -53.527344 L 8.390625 -54.761719 L 9.105469 -53.554688 C 8.371094 -53.121094 7.84375 -52.039062 7.523438 -50.304688 C 4.550781 -34.695312 3.558594 -20.285156 4.546875 -7.082031 C 4.671875 -5.59375 5.09375 -4.441406 5.8125 -3.625 C 6.46875 -2.878906 7.320312 -2.488281 8.363281 -2.453125 C 9.390625 -2.417969 10.234375 -2.746094 10.894531 -3.441406 C 11.632812 -4.21875 12.109375 -5.382812 12.316406 -6.929688 L 13.710938 -6.742188 L 12.3125 -6.878906 L 12.609375 -9.945312 C 12.710938 -11.015625 12.839844 -12.105469 12.992188 -13.226562 L 14.382812 -13.035156 L 12.984375 -13.15625 L 13.53125 -19.503906 L 16.574219 -18.082031 L 16.660156 -18.023438 C 16.871094 -17.882812 17.125 -17.757812 17.421875 -17.644531 L 17.492188 -17.621094 L 18.382812 -17.175781 C 18.664062 -17.035156 18.953125 -16.875 19.25 -16.699219 C 20.042969 -16.199219 20.828125 -15.714844 21.597656 -15.242188 C 22.375 -14.765625 23.15625 -14.28125 23.945312 -13.789062 C 25.449219 -12.890625 26.976562 -11.960938 28.527344 -11.011719 C 30.066406 -10.066406 31.601562 -9.152344 33.128906 -8.265625 C 34.265625 -7.621094 35.417969 -6.992188 36.582031 -6.371094 C 37.664062 -5.796875 38.777344 -5.347656 39.914062 -5.027344 C 41.261719 -4.671875 42.550781 -4.808594 43.78125 -5.445312 C 44.976562 -6.0625 45.765625 -7.003906 46.152344 -8.273438 L 46.160156 -8.308594 L 46.175781 -8.339844 C 46.511719 -9.277344 46.558594 -10.089844 46.320312 -10.773438 C 46.046875 -11.554688 45.621094 -12.214844 45.039062 -12.757812 C 44.378906 -13.371094 43.683594 -13.875 42.941406 -14.265625 Z M 16.140625 -34.128906 C 22.113281 -34.949219 27.277344 -36.867188 31.636719 -39.886719 C 32.714844 -40.652344 33.191406 -41.503906 33.066406 -42.441406 C 32.949219 -43.261719 32.363281 -43.855469 31.308594 -44.21875 C 26.761719 -45.71875 22.753906 -45.300781 19.289062 -42.960938 C 18.066406 -42.171875 17.367188 -41.289062 17.1875 -40.316406 C 16.957031 -39.042969 16.863281 -37.78125 16.910156 -36.535156 L 16.910156 -35.023438 C 16.910156 -34.496094 16.882812 -33.980469 16.828125 -33.480469 L 16.824219 -33.460938 L 16.671875 -32.390625 L 15.28125 -32.585938 L 15.082031 -33.976562 L 16.132812 -34.128906 Z M 16.53125 -31.347656 L 13.628906 -30.933594 L 14.042969 -33.835938 L 15.433594 -33.636719 L 14.035156 -33.792969 C 14.082031 -34.191406 14.101562 -34.601562 14.101562 -35.023438 L 14.101562 -36.484375 L 15.507812 -36.484375 L 14.105469 -36.429688 C 14.050781 -37.882812 14.15625 -39.34375 14.425781 -40.816406 C 14.746094 -42.589844 15.84375 -44.082031 17.71875 -45.289062 C 21.945312 -48.144531 26.777344 -48.671875 32.21875 -46.875 C 34.359375 -46.140625 35.570312 -44.785156 35.851562 -42.8125 C 36.128906 -40.753906 35.253906 -39.007812 33.238281 -37.574219 C 28.507812 -34.300781 22.9375 -32.226562 16.523438 -31.347656 Z M 16.53125 -31.347656 "/></g></g><g style="fill:#222222;fill-opacity:1;"><g transform="translate(125.356896, 95.391354)"><path style="stroke:none" d="M 33.183594 -15.035156 C 34.25 -15.097656 35.390625 -14.9375 36.597656 -14.5625 C 38.046875 -14.117188 39.15625 -13.054688 39.929688 -11.375 C 40.539062 -10.097656 40.703125 -8.8125 40.421875 -7.515625 C 40.15625 -6.277344 39.488281 -5.078125 38.414062 -3.917969 C 37.199219 -2.59375 35.769531 -1.519531 34.113281 -0.691406 C 27.429688 2.546875 20.136719 3.386719 12.238281 1.828125 C 7.226562 0.8125 3.96875 -2.417969 2.464844 -7.867188 C 1.578125 -11.109375 1.210938 -14.363281 1.367188 -17.632812 C 1.519531 -20.800781 1.800781 -23.78125 2.207031 -26.570312 C 2.558594 -28.886719 2.933594 -31.195312 3.335938 -33.503906 L 4.535156 -40.324219 C 4.734375 -41.417969 4.921875 -42.5 5.09375 -43.5625 C 5.269531 -44.644531 5.457031 -45.742188 5.660156 -46.847656 L 5.667969 -46.894531 L 5.753906 -47.238281 L 7.117188 -46.894531 L 5.730469 -47.128906 C 5.78125 -47.421875 5.828125 -47.726562 5.878906 -48.046875 C 5.898438 -48.167969 5.882812 -48.304688 5.839844 -48.457031 L 5.824219 -48.511719 L 5.8125 -48.570312 C 5.472656 -50.277344 5.683594 -51.824219 6.449219 -53.210938 C 7.179688 -54.539062 8.402344 -55.667969 10.117188 -56.597656 C 10.703125 -56.914062 11.300781 -57.207031 11.914062 -57.472656 C 12.59375 -57.769531 13.289062 -57.976562 14.003906 -58.09375 L 14.019531 -58.097656 L 17.261719 -58.550781 L 24.273438 -59.488281 C 26.6875 -59.816406 29.089844 -60.035156 31.480469 -60.136719 L 32.136719 -60.136719 C 34.855469 -60.136719 37.070312 -59.335938 38.789062 -57.738281 L 37.832031 -56.710938 L 38.761719 -57.761719 C 40.363281 -56.34375 41.195312 -54.585938 41.257812 -52.480469 C 41.320312 -50.132812 40.441406 -48.1875 38.628906 -46.648438 C 36.917969 -45.199219 34.707031 -44.390625 32 -44.222656 C 30.410156 -44.117188 28.816406 -44.09375 27.222656 -44.144531 C 25.660156 -44.195312 24.097656 -44.269531 22.535156 -44.371094 L 22.625 -45.773438 L 22.570312 -44.367188 L 20.621094 -44.445312 C 19.707031 -44.492188 18.996094 -44.503906 18.492188 -44.480469 C 18.304688 -44.472656 18.167969 -44.421875 18.074219 -44.328125 L 17.996094 -44.257812 C 17.933594 -44.203125 17.894531 -44.09375 17.878906 -43.921875 C 17.832031 -43.414062 17.8125 -42.707031 17.8125 -41.800781 L 17.8125 -32.363281 L 16.40625 -32.363281 L 16.191406 -33.75 L 17.167969 -33.902344 L 17.378906 -32.511719 L 17.125 -33.894531 L 18.734375 -34.191406 C 19.21875 -34.285156 19.71875 -34.402344 20.230469 -34.542969 L 20.292969 -34.558594 L 23.765625 -35.167969 C 24.929688 -35.375 26.078125 -35.53125 27.214844 -35.632812 C 30.164062 -35.898438 32.90625 -35.738281 35.449219 -35.15625 C 36.8125 -34.871094 37.886719 -34.277344 38.667969 -33.378906 C 39.449219 -32.476562 39.886719 -31.324219 39.980469 -29.910156 C 40.113281 -28.273438 39.71875 -26.941406 38.800781 -25.917969 C 38.035156 -25.0625 37.222656 -24.417969 36.363281 -23.988281 C 34.460938 -23.011719 32.597656 -22.441406 30.765625 -22.273438 C 29.148438 -22.121094 27.492188 -22.007812 25.796875 -21.933594 C 24.128906 -21.859375 22.449219 -21.769531 20.757812 -21.671875 L 20.71875 -21.667969 L 20.675781 -21.667969 C 20.007812 -21.667969 19.328125 -21.644531 18.636719 -21.597656 C 17.882812 -21.546875 17.113281 -21.519531 16.332031 -21.519531 L 16.332031 -22.921875 L 16.472656 -21.527344 L 15.722656 -21.449219 L 15.582031 -22.847656 L 16.988281 -22.847656 L 16.988281 -16.742188 C 16.988281 -15.691406 17.011719 -14.652344 17.058594 -13.625 L 17.0625 -13.59375 L 17.0625 -13.558594 C 17.0625 -13.542969 17.066406 -13.527344 17.082031 -13.511719 C 17.277344 -13.273438 17.433594 -13.097656 17.550781 -12.980469 L 16.554688 -11.984375 L 17.398438 -13.109375 C 17.554688 -12.992188 17.761719 -12.859375 18.011719 -12.710938 C 18.09375 -12.664062 18.183594 -12.640625 18.277344 -12.640625 L 18.277344 -11.238281 L 18.179688 -12.636719 C 20.933594 -12.835938 23.988281 -13.203125 27.34375 -13.746094 L 27.378906 -13.753906 L 27.414062 -13.757812 C 27.78125 -13.796875 28.136719 -13.867188 28.484375 -13.96875 C 28.925781 -14.101562 29.355469 -14.21875 29.773438 -14.324219 C 30.320312 -14.472656 30.863281 -14.609375 31.402344 -14.738281 C 31.988281 -14.878906 32.558594 -14.976562 33.121094 -15.03125 L 33.152344 -15.035156 Z M 33.339844 -12.230469 L 33.261719 -13.632812 L 33.402344 -12.238281 C 32.964844 -12.191406 32.515625 -12.117188 32.050781 -12.003906 C 31.542969 -11.882812 31.011719 -11.75 30.457031 -11.597656 C 30.074219 -11.503906 29.683594 -11.394531 29.277344 -11.277344 C 28.773438 -11.128906 28.253906 -11.023438 27.722656 -10.964844 L 27.570312 -12.359375 L 27.792969 -10.972656 C 24.355469 -10.417969 21.21875 -10.039062 18.378906 -9.835938 L 18.328125 -9.832031 L 18.277344 -9.832031 C 17.675781 -9.832031 17.117188 -9.984375 16.597656 -10.285156 C 16.25 -10.488281 15.957031 -10.679688 15.714844 -10.863281 L 15.632812 -10.921875 L 15.5625 -10.992188 C 15.378906 -11.175781 15.160156 -11.421875 14.90625 -11.734375 C 14.46875 -12.265625 14.253906 -12.875 14.253906 -13.558594 L 15.65625 -13.558594 L 14.253906 -13.492188 C 14.203125 -14.5625 14.175781 -15.648438 14.175781 -16.742188 L 14.175781 -24.121094 L 16.261719 -24.328125 L 16.332031 -24.328125 C 17.046875 -24.328125 17.753906 -24.351562 18.445312 -24.398438 C 19.199219 -24.453125 19.945312 -24.476562 20.675781 -24.476562 L 20.675781 -23.074219 L 20.59375 -24.476562 C 22.296875 -24.574219 23.992188 -24.664062 25.671875 -24.738281 C 27.320312 -24.8125 28.933594 -24.921875 30.511719 -25.070312 C 31.980469 -25.203125 33.511719 -25.683594 35.105469 -26.503906 C 35.644531 -26.773438 36.179688 -27.203125 36.710938 -27.792969 C 37.09375 -28.21875 37.246094 -28.859375 37.179688 -29.71875 C 37.125 -30.507812 36.914062 -31.109375 36.546875 -31.535156 C 36.179688 -31.960938 35.601562 -32.253906 34.820312 -32.417969 C 32.566406 -32.933594 30.117188 -33.074219 27.472656 -32.835938 C 26.410156 -32.742188 25.339844 -32.597656 24.253906 -32.402344 L 20.84375 -31.804688 L 20.601562 -33.1875 L 20.972656 -31.832031 C 20.386719 -31.671875 19.8125 -31.539062 19.246094 -31.429688 L 17.617188 -31.128906 L 15 -30.726562 L 15 -41.800781 C 15 -42.792969 15.027344 -43.585938 15.082031 -44.175781 C 15.167969 -45.105469 15.527344 -45.84375 16.167969 -46.390625 L 17.082031 -45.324219 L 16.085938 -46.316406 C 16.695312 -46.921875 17.453125 -47.246094 18.363281 -47.289062 C 18.960938 -47.316406 19.75 -47.304688 20.730469 -47.25 L 22.695312 -47.175781 L 22.714844 -47.175781 C 24.246094 -47.074219 25.78125 -47 27.3125 -46.953125 C 28.816406 -46.902344 30.320312 -46.925781 31.824219 -47.023438 C 33.914062 -47.15625 35.574219 -47.742188 36.8125 -48.792969 C 37.941406 -49.75 38.488281 -50.953125 38.449219 -52.398438 C 38.414062 -53.691406 37.894531 -54.777344 36.902344 -55.65625 L 36.886719 -55.667969 L 36.875 -55.683594 C 35.695312 -56.78125 34.117188 -57.328125 32.136719 -57.328125 L 31.539062 -57.328125 L 31.539062 -58.734375 L 31.597656 -57.328125 C 29.296875 -57.230469 26.976562 -57.023438 24.644531 -56.703125 L 17.648438 -55.769531 L 14.429688 -55.320312 L 14.234375 -56.710938 L 14.464844 -55.324219 C 13.980469 -55.242188 13.5 -55.101562 13.035156 -54.898438 C 12.496094 -54.664062 11.972656 -54.40625 11.457031 -54.125 C 10.226562 -53.457031 9.375 -52.699219 8.910156 -51.855469 C 8.476562 -51.070312 8.363281 -50.15625 8.570312 -49.121094 L 7.191406 -48.84375 L 8.542969 -49.230469 C 8.699219 -48.683594 8.734375 -48.144531 8.65625 -47.617188 C 8.605469 -47.289062 8.554688 -46.972656 8.503906 -46.664062 L 8.492188 -46.609375 L 8.40625 -46.257812 L 7.042969 -46.597656 L 8.425781 -46.34375 C 8.226562 -45.253906 8.039062 -44.175781 7.867188 -43.113281 C 7.691406 -42.03125 7.503906 -40.9375 7.300781 -39.835938 L 6.101562 -33.019531 C 5.707031 -30.734375 5.332031 -28.449219 4.984375 -26.167969 C 4.59375 -23.464844 4.324219 -20.578125 4.175781 -17.5 C 4.03125 -14.527344 4.367188 -11.566406 5.175781 -8.613281 C 6.371094 -4.273438 8.90625 -1.710938 12.78125 -0.929688 C 20.066406 0.507812 26.757812 -0.25 32.859375 -3.203125 C 34.203125 -3.875 35.367188 -4.75 36.351562 -5.820312 C 37.074219 -6.609375 37.515625 -7.367188 37.675781 -8.105469 C 37.820312 -8.78125 37.722656 -9.476562 37.378906 -10.199219 C 36.957031 -11.117188 36.417969 -11.679688 35.769531 -11.878906 C 34.878906 -12.15625 34.070312 -12.273438 33.339844 -12.230469 Z M 33.339844 -12.230469 "/></g></g><g style="fill:#222222;fill-opacity:1;"><g transform="translate(78.82651, 136.189708)"><path style="stroke:none" d="M 24.375 -23 C 24.539062 -22.488281 24.585938 -21.882812 24.515625 -21.1875 C 24.453125 -20.5 24.257812 -19.960938 23.9375 -19.578125 C 23.644531 -19.191406 23.175781 -18.921875 22.53125 -18.765625 C 21.882812 -18.617188 21.28125 -18.554688 20.71875 -18.578125 C 20.15625 -18.597656 19.585938 -18.738281 19.015625 -19 C 18.453125 -19.257812 17.90625 -19.507812 17.375 -19.75 C 16.613281 -20.101562 15.957031 -20.1875 15.40625 -20 C 14.851562 -19.820312 14.472656 -19.375 14.265625 -18.65625 C 13.429688 -16.050781 12.765625 -13.378906 12.265625 -10.640625 C 12.128906 -10.046875 12.117188 -9.421875 12.234375 -8.765625 C 12.347656 -8.117188 12.378906 -7.476562 12.328125 -6.84375 C 12.253906 -5.457031 11.773438 -4.3125 10.890625 -3.40625 C 10.003906 -2.5 8.929688 -1.988281 7.671875 -1.875 C 6.367188 -1.757812 5.21875 -2.066406 4.21875 -2.796875 C 3.226562 -3.523438 2.539062 -4.554688 2.15625 -5.890625 C 2.070312 -6.234375 1.992188 -6.566406 1.921875 -6.890625 C 1.859375 -7.222656 1.820312 -7.578125 1.8125 -7.953125 C 1.738281 -11.265625 1.65625 -14.585938 1.5625 -17.921875 C 1.476562 -21.265625 1.398438 -24.597656 1.328125 -27.921875 C 1.316406 -28.253906 1.320312 -28.613281 1.34375 -29 C 1.375 -29.394531 1.5 -29.710938 1.71875 -29.953125 C 2.070312 -30.410156 2.472656 -30.894531 2.921875 -31.40625 C 3.367188 -31.925781 3.835938 -32.210938 4.328125 -32.265625 C 4.804688 -32.328125 5.335938 -32.1875 5.921875 -31.84375 C 6.515625 -31.5 7.03125 -31.117188 7.46875 -30.703125 C 7.8125 -30.335938 8.070312 -29.867188 8.25 -29.296875 C 8.4375 -28.722656 8.65625 -28.132812 8.90625 -27.53125 C 12.40625 -29.601562 15.941406 -29.796875 19.515625 -28.109375 C 20.691406 -27.585938 21.703125 -26.910156 22.546875 -26.078125 C 23.390625 -25.242188 24 -24.21875 24.375 -23 Z M 24.375 -23 "/></g></g><g style="fill:#222222;fill-opacity:1;"><g transform="translate(106.164192, 135.300846)"><path style="stroke:none" d="M 18.875 -26.921875 C 20.5625 -26.710938 22.035156 -26.148438 23.296875 -25.234375 C 24.554688 -24.328125 25.507812 -23.175781 26.15625 -21.78125 C 26.800781 -20.382812 27.019531 -18.84375 26.8125 -17.15625 C 26.613281 -15.132812 26.140625 -13.242188 25.390625 -11.484375 C 24.648438 -9.734375 23.578125 -8.125 22.171875 -6.65625 C 19.859375 -4.269531 17.007812 -3.035156 13.625 -2.953125 C 12.457031 -3.179688 11.285156 -3.378906 10.109375 -3.546875 C 8.929688 -3.722656 7.773438 -3.972656 6.640625 -4.296875 C 4.410156 -5.015625 2.765625 -6.210938 1.703125 -7.890625 C 0.640625 -9.578125 0.238281 -11.582031 0.5 -13.90625 C 0.820312 -16.625 1.664062 -19.019531 3.03125 -21.09375 C 4.40625 -23.175781 6.242188 -24.96875 8.546875 -26.46875 C 10.523438 -27.726562 12.675781 -28.078125 15 -27.515625 C 15.632812 -27.347656 16.28125 -27.21875 16.9375 -27.125 C 17.59375 -27.039062 18.238281 -26.972656 18.875 -26.921875 Z M 17.609375 -16.078125 C 18.015625 -17.429688 17.640625 -18.484375 16.484375 -19.234375 C 15.421875 -19.929688 14.609375 -20.375 14.046875 -20.5625 C 13.492188 -20.757812 13 -20.65625 12.5625 -20.25 C 12.125 -19.84375 11.566406 -19.101562 10.890625 -18.03125 C 10.671875 -17.6875 10.492188 -17.40625 10.359375 -17.1875 C 9.335938 -15.25 9.046875 -13.90625 9.484375 -13.15625 C 9.921875 -12.40625 11.222656 -12.007812 13.390625 -11.96875 C 14.492188 -11.96875 15.34375 -12.265625 15.9375 -12.859375 C 16.539062 -13.460938 17.097656 -14.535156 17.609375 -16.078125 Z M 17.609375 -16.078125 "/></g></g><g style="fill:#222222;fill-opacity:1;"><g transform="translate(134.955406, 134.364724)"><path style="stroke:none" d="M 25.40625 -22.3125 C 27.125 -19.082031 27.796875 -15.640625 27.421875 -11.984375 C 27.253906 -10.441406 26.742188 -9.003906 25.890625 -7.671875 C 25.035156 -6.335938 23.941406 -5.203125 22.609375 -4.265625 C 21.273438 -3.328125 19.800781 -2.644531 18.1875 -2.21875 C 16.582031 -1.789062 14.941406 -1.679688 13.265625 -1.890625 C 12.960938 -1.921875 12.65625 -1.957031 12.34375 -2 C 12.03125 -2.039062 11.644531 -2.09375 11.1875 -2.15625 C 11.238281 -0.582031 11.296875 0.9375 11.359375 2.40625 C 11.421875 3.882812 11.460938 5.332031 11.484375 6.75 C 11.503906 7.34375 11.484375 7.9375 11.421875 8.53125 C 11.359375 9.132812 11.265625 9.71875 11.140625 10.28125 C 10.835938 11.332031 10.265625 12.140625 9.421875 12.703125 C 8.585938 13.273438 7.660156 13.539062 6.640625 13.5 C 5.640625 13.414062 4.753906 13.039062 3.984375 12.375 C 3.222656 11.71875 2.710938 10.875 2.453125 9.84375 C 2.441406 9.800781 2.425781 9.742188 2.40625 9.671875 C 2.382812 9.597656 2.375 9.523438 2.375 9.453125 C 2.507812 6.640625 2.46875 3.828125 2.25 1.015625 C 2.03125 -1.785156 1.910156 -4.585938 1.890625 -7.390625 C 1.867188 -10.191406 2.1875 -13 2.84375 -15.8125 C 3.175781 -17.195312 3.398438 -18.617188 3.515625 -20.078125 C 3.640625 -21.546875 3.847656 -22.992188 4.140625 -24.421875 C 4.359375 -25.515625 4.835938 -26.164062 5.578125 -26.375 C 6.316406 -26.582031 7.109375 -26.304688 7.953125 -25.546875 C 8.035156 -25.472656 8.125 -25.390625 8.21875 -25.296875 C 8.3125 -25.210938 8.398438 -25.113281 8.484375 -25 C 9.359375 -25.40625 10.226562 -25.8125 11.09375 -26.21875 C 11.957031 -26.625 12.847656 -26.945312 13.765625 -27.1875 C 16.316406 -27.976562 18.578125 -27.953125 20.546875 -27.109375 C 22.515625 -26.265625 24.132812 -24.664062 25.40625 -22.3125 Z M 13.90625 -11.59375 C 16.476562 -11.457031 18.160156 -11.976562 18.953125 -13.15625 C 19.753906 -14.34375 19.832031 -16.242188 19.1875 -18.859375 C 18.800781 -20.492188 17.753906 -21.039062 16.046875 -20.5 C 14.867188 -20.15625 13.921875 -19.585938 13.203125 -18.796875 C 12.492188 -18.015625 11.875 -17.113281 11.34375 -16.09375 C 10.394531 -14.28125 10.082031 -13.085938 10.40625 -12.515625 C 10.726562 -11.941406 11.894531 -11.632812 13.90625 -11.59375 Z M 13.90625 -11.59375 "/></g></g><g style="fill:#222222;fill-opacity:1;"><g transform="translate(81.041455, 196.822326)"><path style="stroke:none" d="M 1.1875 -41.78125 C 0.832031 -43.101562 0.898438 -44.425781 1.390625 -45.75 C 1.878906 -47.070312 2.640625 -48.25 3.671875 -49.28125 C 4.710938 -50.320312 5.875 -51.019531 7.15625 -51.375 C 7.675781 -51.507812 8.351562 -51.539062 9.1875 -51.46875 C 10.03125 -51.40625 10.867188 -51.207031 11.703125 -50.875 C 12.546875 -50.539062 13.195312 -50.085938 13.65625 -49.515625 C 14.125 -48.941406 14.226562 -48.238281 13.96875 -47.40625 C 14.40625 -46.082031 14.335938 -44.742188 13.765625 -43.390625 C 13.191406 -42.046875 12.332031 -40.875 11.1875 -39.875 C 10.039062 -38.882812 8.789062 -38.210938 7.4375 -37.859375 C 6.09375 -37.515625 4.847656 -37.628906 3.703125 -38.203125 C 2.554688 -38.773438 1.71875 -39.96875 1.1875 -41.78125 Z M 9.859375 -0.921875 C 8.398438 0.0859375 6.988281 0.285156 5.625 -0.328125 C 4.257812 -0.953125 3.222656 -1.988281 2.515625 -3.4375 C 1.847656 -4.851562 1.414062 -6.476562 1.21875 -8.3125 C 1.019531 -10.144531 0.953125 -12.050781 1.015625 -14.03125 C 1.085938 -16.019531 1.210938 -17.960938 1.390625 -19.859375 C 1.566406 -21.753906 1.722656 -23.429688 1.859375 -24.890625 C 1.941406 -25.816406 2.023438 -26.882812 2.109375 -28.09375 C 2.203125 -29.3125 2.398438 -30.515625 2.703125 -31.703125 C 3.015625 -32.898438 3.503906 -33.851562 4.171875 -34.5625 C 5.140625 -35.570312 6.15625 -36.039062 7.21875 -35.96875 C 8.28125 -35.90625 9.285156 -35.507812 10.234375 -34.78125 C 11.179688 -34.0625 11.894531 -33.148438 12.375 -32.046875 C 13.476562 -29.660156 14.109375 -27 14.265625 -24.0625 C 14.421875 -21.125 14.300781 -18.175781 13.90625 -15.21875 C 13.507812 -12.269531 13.066406 -9.554688 12.578125 -7.078125 C 12.359375 -5.972656 12.101562 -4.859375 11.8125 -3.734375 C 11.53125 -2.609375 10.878906 -1.671875 9.859375 -0.921875 Z M 9.859375 -0.921875 "/></g></g><g style="fill:#222222;fill-opacity:1;"><g transform="translate(96.334028, 196.822326)"><path style="stroke:none" d="M 3.109375 -1.265625 C 2.359375 -2.097656 1.828125 -3.175781 1.515625 -4.5 C 1.210938 -5.820312 1.050781 -7.242188 1.03125 -8.765625 C 1.007812 -10.296875 1.050781 -11.773438 1.15625 -13.203125 C 1.269531 -14.640625 1.347656 -15.863281 1.390625 -16.875 C 1.472656 -18.070312 1.515625 -19.519531 1.515625 -21.21875 C 1.515625 -22.914062 1.570312 -24.710938 1.6875 -26.609375 C 1.800781 -28.503906 2.03125 -30.359375 2.375 -32.171875 C 2.726562 -33.984375 3.269531 -35.570312 4 -36.9375 C 4.726562 -38.3125 5.710938 -39.304688 6.953125 -39.921875 C 8.273438 -40.578125 9.585938 -40.75 10.890625 -40.4375 C 12.191406 -40.132812 13.394531 -39.550781 14.5 -38.6875 C 15.601562 -37.832031 16.484375 -36.851562 17.140625 -35.75 C 18.421875 -33.71875 19.515625 -31.617188 20.421875 -29.453125 C 21.328125 -27.296875 22.441406 -25.179688 23.765625 -23.109375 C 23.722656 -24.160156 23.625 -25.359375 23.46875 -26.703125 C 23.3125 -28.054688 23.234375 -29.425781 23.234375 -30.8125 C 23.234375 -32.207031 23.398438 -33.53125 23.734375 -34.78125 C 24.066406 -36.039062 24.648438 -37.113281 25.484375 -38 C 26.585938 -39.144531 27.753906 -39.726562 28.984375 -39.75 C 30.222656 -39.769531 31.328125 -39.375 32.296875 -38.5625 C 33.273438 -37.75 33.851562 -36.59375 34.03125 -35.09375 C 34.332031 -33.0625 34.601562 -30.742188 34.84375 -28.140625 C 35.09375 -25.535156 35.207031 -22.863281 35.1875 -20.125 C 35.164062 -17.382812 34.957031 -14.734375 34.5625 -12.171875 C 34.164062 -9.617188 33.503906 -7.347656 32.578125 -5.359375 C 31.554688 -3.203125 30.4375 -1.9375 29.21875 -1.5625 C 28.007812 -1.1875 26.742188 -1.414062 25.421875 -2.25 C 24.097656 -3.09375 22.796875 -4.304688 21.515625 -5.890625 C 20.234375 -7.484375 19.03125 -9.179688 17.90625 -10.984375 C 16.78125 -12.796875 15.785156 -14.472656 14.921875 -16.015625 C 14.066406 -17.566406 13.414062 -18.71875 12.96875 -19.46875 C 12.882812 -19.019531 12.71875 -18.113281 12.46875 -16.75 C 12.226562 -15.382812 11.910156 -13.816406 11.515625 -12.046875 C 11.117188 -10.285156 10.65625 -8.539062 10.125 -6.8125 C 9.59375 -5.09375 8.984375 -3.613281 8.296875 -2.375 C 7.617188 -1.144531 6.847656 -0.375 5.984375 -0.0625 C 5.128906 0.238281 4.171875 -0.160156 3.109375 -1.265625 Z M 3.109375 -1.265625 "/></g></g><g style="fill:#222222;fill-opacity:1;"><g transform="translate(132.546309, 196.822326)"><path style="stroke:none" d="M 6.359375 -5.234375 C 4.328125 -7.304688 2.890625 -9.644531 2.046875 -12.25 C 1.210938 -14.851562 0.882812 -17.566406 1.0625 -20.390625 C 1.238281 -23.210938 1.832031 -25.945312 2.84375 -28.59375 C 3.863281 -31.25 5.1875 -33.632812 6.8125 -35.75 C 7.4375 -36.582031 8.285156 -37.550781 9.359375 -38.65625 C 10.441406 -39.757812 11.644531 -40.816406 12.96875 -41.828125 C 14.300781 -42.847656 15.679688 -43.675781 17.109375 -44.3125 C 18.546875 -44.957031 19.925781 -45.269531 21.25 -45.25 C 22.570312 -45.226562 23.785156 -44.6875 24.890625 -43.625 C 26.128906 -42.4375 26.890625 -41.144531 27.171875 -39.75 C 27.460938 -38.363281 27.285156 -37.109375 26.640625 -35.984375 C 26.003906 -34.859375 24.914062 -34.050781 23.375 -33.5625 C 21.382812 -32.988281 19.539062 -32.0625 17.84375 -30.78125 C 16.144531 -29.5 14.765625 -27.953125 13.703125 -26.140625 C 12.640625 -24.335938 12.046875 -22.332031 11.921875 -20.125 C 11.867188 -18.445312 12.1875 -16.800781 12.875 -15.1875 C 13.5625 -13.582031 14.675781 -12.378906 16.21875 -11.578125 C 16.789062 -11.316406 17.519531 -11.109375 18.40625 -10.953125 C 19.289062 -10.796875 20.160156 -10.785156 21.015625 -10.921875 C 21.878906 -11.054688 22.507812 -11.453125 22.90625 -12.109375 C 23.300781 -12.773438 23.421875 -13.257812 23.265625 -13.5625 C 23.109375 -13.875 22.8125 -14.109375 22.375 -14.265625 C 21.9375 -14.421875 21.460938 -14.578125 20.953125 -14.734375 C 20.441406 -14.890625 20.035156 -15.140625 19.734375 -15.484375 C 19.023438 -16.234375 18.632812 -17.328125 18.5625 -18.765625 C 18.5 -20.203125 18.6875 -21.382812 19.125 -22.3125 C 19.707031 -23.5 20.546875 -24.3125 21.640625 -24.75 C 22.742188 -25.195312 23.945312 -25.351562 25.25 -25.21875 C 26.550781 -25.09375 27.832031 -24.726562 29.09375 -24.125 C 30.351562 -23.53125 31.445312 -22.78125 32.375 -21.875 C 33.300781 -20.96875 33.921875 -19.988281 34.234375 -18.9375 C 35.023438 -16.0625 35.164062 -13.476562 34.65625 -11.1875 C 34.144531 -8.894531 33.148438 -6.921875 31.671875 -5.265625 C 30.191406 -3.609375 28.40625 -2.328125 26.3125 -1.421875 C 24.21875 -0.515625 21.988281 -0.03125 19.625 0.03125 C 17.269531 0.09375 14.941406 -0.300781 12.640625 -1.15625 C 10.347656 -2.019531 8.253906 -3.378906 6.359375 -5.234375 Z M 6.359375 -5.234375 "/></g></g></g></svg>