<?xml version="1.0" encoding="UTF-8"?>
<svg id="Layer_2" data-name="Layer 2" xmlns="http://www.w3.org/2000/svg" viewBox="0 0 121.89 215.47">
  <defs>
    <style>
      .cls-1 {
        fill: #222;
      }
    </style>
  </defs>
  <g id="Layer_1-2" data-name="Layer 1">
    <g id="_798af5b8c3" data-name="798af5b8c3">
      <path class="cls-1" d="M57.19,57.85c1.28.68,2.48,1.54,3.6,2.58,1.22,1.15,2.12,2.53,2.69,4.15.61,1.75.54,3.66-.21,5.74l-1.76-.64,1.79.55c-.82,2.7-2.49,4.71-5.03,6.02-2.49,1.28-5.1,1.57-7.83.84-1.81-.51-3.56-1.21-5.24-2.1-1.58-.84-3.14-1.7-4.69-2.57-2.09-1.21-4.17-2.45-6.25-3.73-2.06-1.26-4.08-2.49-6.08-3.69-1.08-.67-2.14-1.32-3.16-1.95-1.04-.64-2.09-1.29-3.16-1.96-.27-.16-.55-.32-.84-.46l-1.1-.55.84-1.68-.66,1.76c-.67-.25-1.26-.55-1.78-.9l1.04-1.56-.79,1.7-1.5-.7.79-1.7,1.86.16-.5,5.84v.05c-.2,1.44-.37,2.84-.5,4.22l-.4,4.14v.03c-.39,2.86-1.36,5.11-2.9,6.73-1.65,1.74-3.72,2.56-6.22,2.48-2.47-.08-4.49-1.03-6.08-2.83-1.51-1.71-2.38-3.96-2.61-6.78-1.34-17.95,0-37.5,4.02-58.64.64-3.42,1.93-5.7,3.89-6.86l.03-.02.03-.02c1.01-.55,2.18-.83,3.49-.83,1.4,0,2.99.3,4.79.9l.05.02.05.02c.31.13.66.15,1.05.06.66-.15,1.11-.27,1.35-.36,7.57-2.94,15.73-3.37,24.51-1.28,4.82,1.15,8.71,3.26,11.68,6.34,2.96,3.07,4.96,7.06,6,11.97.98,4.53.72,8.71-.79,12.56-1.49,3.81-4.18,7.24-8.08,10.29l-.08.06c-.89.61-1.8,1.22-2.75,1.83-.94.6-1.95,1.24-3.02,1.91l-.03.02-.03.02c-.44.26-.92.54-1.43.86l-1.6,1-1.53.92-.96-1.6.96-1.61,1.52.91,2.22,1.41c.72.46,1.41.89,2.06,1.28l.04.02.04.03c1.58,1.05,3.12,2.04,4.63,2.95,1.51.92,3.04,1.8,4.61,2.65h-.02ZM55.42,61.15c-1.63-.88-3.22-1.79-4.78-2.74-1.55-.95-3.14-1.96-4.76-3.04l1.04-1.56-.96,1.6c-.68-.41-1.4-.85-2.14-1.32l-2.2-1.4,1.01-1.58-.96,1.61-4.17-2.51,4.15-2.49,1.59-1c.56-.34,1.08-.66,1.56-.94l.93,1.63-.99-1.59c1.06-.66,2.05-1.29,2.98-1.89.91-.59,1.79-1.18,2.64-1.77l1.07,1.54-1.15-1.48c3.36-2.61,5.66-5.52,6.9-8.69,1.23-3.15,1.43-6.61.61-10.42-.89-4.21-2.57-7.59-5.04-10.15-2.46-2.55-5.74-4.31-9.85-5.3-8.01-1.91-15.43-1.53-22.24,1.12-.43.17-1.08.35-1.94.54-1.14.25-2.22.17-3.24-.24l.7-1.74-.59,1.78c-1.41-.47-2.6-.7-3.6-.7-.68,0-1.25.13-1.7.38l-.9-1.65.95,1.61c-.98.58-1.68,2.02-2.11,4.33-3.96,20.81-5.29,40.03-3.97,57.63.17,1.98.73,3.52,1.69,4.61.88.99,2.01,1.52,3.4,1.56,1.37.05,2.49-.39,3.38-1.32.98-1.04,1.62-2.59,1.9-4.65l1.86.25-1.86-.18.4-4.09c.14-1.43.31-2.88.51-4.38l1.85.26-1.86-.16.73-8.46,4.06,1.9.11.08c.28.19.62.35,1.02.51l.09.03,1.19.59c.38.19.76.4,1.16.64,1.06.67,2.1,1.31,3.13,1.94,1.04.64,2.08,1.28,3.13,1.94,2.01,1.2,4.04,2.44,6.11,3.7,2.05,1.26,4.1,2.48,6.14,3.66,1.52.86,3.05,1.7,4.6,2.53,1.44.77,2.93,1.36,4.44,1.79,1.8.47,3.52.29,5.16-.56,1.59-.82,2.65-2.08,3.16-3.77v-.05s.03-.04.03-.04c.45-1.25.51-2.33.19-3.24-.36-1.04-.93-1.92-1.71-2.65-.88-.82-1.81-1.49-2.8-2.01h-.02ZM19.7,34.68c7.96-1.09,14.85-3.65,20.66-7.68,1.44-1.02,2.07-2.16,1.91-3.41-.16-1.09-.94-1.89-2.34-2.37-6.06-2-11.41-1.44-16.03,1.68-1.63,1.05-2.56,2.23-2.8,3.53-.31,1.7-.43,3.38-.37,5.04v2.02c0,.7-.04,1.39-.11,2.06v.03s-.21,1.43-.21,1.43l-1.85-.26-.27-1.85,1.4-.2h.01ZM20.22,38.39l-3.87.55.55-3.87,1.85.27-1.86-.21c.06-.53.09-1.08.09-1.64v-1.95h1.88l-1.87.07c-.07-1.94.07-3.89.43-5.85.43-2.36,1.89-4.35,4.39-5.96,5.64-3.81,12.08-4.51,19.33-2.11,2.85.98,4.47,2.79,4.84,5.42.37,2.74-.8,5.07-3.48,6.98-6.31,4.36-13.73,7.13-22.29,8.3h.01Z"/>
      <path class="cls-1" d="M109.94,60.14c1.42-.08,2.94.13,4.55.63,1.93.59,3.41,2.01,4.44,4.25.81,1.7,1.03,3.42.66,5.15-.35,1.65-1.24,3.25-2.68,4.8-1.62,1.77-3.53,3.2-5.73,4.3-8.91,4.32-18.64,5.44-29.17,3.36-6.68-1.35-11.03-5.66-13.03-12.93-1.18-4.32-1.67-8.66-1.46-13.02.2-4.22.58-8.2,1.12-11.92.47-3.09.97-6.17,1.51-9.24l1.6-9.09c.27-1.46.52-2.9.74-4.32.23-1.44.48-2.91.76-4.38v-.06s.13-.46.13-.46l1.82.46-1.85-.31c.07-.39.13-.8.2-1.22.03-.16,0-.34-.05-.55l-.02-.07-.02-.08c-.45-2.28-.17-4.34.85-6.19.97-1.77,2.6-3.28,4.89-4.52.78-.42,1.58-.81,2.4-1.17.91-.4,1.83-.67,2.79-.83h.02s4.32-.61,4.32-.61l9.35-1.25c3.22-.44,6.42-.73,9.61-.86h.88c3.63,0,6.58,1.07,8.87,3.2l-1.28,1.37,1.24-1.4c2.14,1.89,3.24,4.23,3.33,7.04.08,3.13-1.09,5.72-3.51,7.78-2.28,1.93-5.23,3.01-8.84,3.23-2.12.14-4.24.17-6.37.1-2.08-.07-4.17-.17-6.25-.3l.12-1.87-.07,1.88-2.6-.1c-1.22-.06-2.17-.08-2.84-.05-.25.01-.43.08-.56.2l-.1.09c-.08.07-.14.22-.16.45-.06.68-.09,1.62-.09,2.83v12.58h-1.88l-.29-1.85,1.3-.2.28,1.85-.34-1.84,2.15-.4c.65-.13,1.31-.28,1.99-.47l.08-.02,4.63-.81c1.55-.28,3.08-.48,4.6-.62,3.93-.35,7.59-.14,10.98.64,1.82.38,3.25,1.17,4.29,2.37,1.04,1.2,1.63,2.74,1.75,4.63.18,2.18-.35,3.96-1.57,5.32-1.02,1.14-2.1,2-3.25,2.57-2.54,1.3-5.02,2.06-7.46,2.29-2.16.2-4.36.35-6.63.45-2.22.1-4.46.22-6.72.35h-.05s-.06,0-.06,0c-.89,0-1.8.03-2.72.09-1.01.07-2.03.1-3.07.1v-1.87l.19,1.86-1,.1-.19-1.86h1.88v8.14c0,1.4.03,2.79.09,4.16v.04s0,.05,0,.05c0,.02,0,.04.03.06.26.32.47.55.63.71l-1.33,1.33,1.13-1.5c.21.16.48.33.82.53.11.06.23.09.35.09v1.87l-.13-1.86c3.67-.27,7.74-.76,12.22-1.48h.05s.05-.02.05-.02c.49-.05.96-.15,1.43-.28.59-.18,1.16-.33,1.72-.47.73-.2,1.45-.38,2.17-.55.78-.19,1.54-.32,2.29-.39h.04s.04,0,.04,0ZM110.15,63.88l-.1-1.87.19,1.86c-.58.06-1.18.16-1.8.31-.68.16-1.39.34-2.13.54-.51.13-1.03.27-1.57.43-.67.2-1.36.34-2.07.42l-.2-1.86.3,1.85c-4.58.74-8.77,1.24-12.55,1.52h-.07s-.07,0-.07,0c-.8,0-1.55-.2-2.24-.6-.46-.27-.85-.53-1.18-.77l-.11-.08-.09-.09c-.24-.24-.54-.57-.88-.99-.58-.71-.87-1.52-.87-2.43h1.87l-1.87.09c-.07-1.43-.1-2.88-.1-4.33v-9.84l2.78-.28h.09c.95,0,1.9-.03,2.82-.09,1.01-.07,2-.1,2.97-.1v1.87l-.11-1.87c2.27-.13,4.53-.25,6.77-.35,2.2-.1,4.35-.24,6.45-.44,1.96-.18,4-.82,6.13-1.91.72-.36,1.43-.93,2.14-1.72.51-.57.71-1.42.63-2.57-.07-1.05-.35-1.85-.84-2.42s-1.26-.96-2.3-1.18c-3.01-.69-6.27-.88-9.8-.56-1.42.13-2.84.32-4.29.58l-4.55.8-.32-1.84.49,1.81c-.78.21-1.55.39-2.3.54l-2.17.4-3.49.54v-14.77c0-1.32.04-2.38.11-3.17.11-1.24.59-2.22,1.45-2.95l1.22,1.42-1.33-1.32c.81-.81,1.82-1.24,3.04-1.3.8-.04,1.85-.02,3.16.05l2.62.1h.03c2.04.14,4.09.23,6.13.3,2.01.07,4.01.04,6.02-.09,2.79-.18,5-.96,6.65-2.36,1.51-1.28,2.23-2.88,2.18-4.81-.05-1.72-.74-3.17-2.06-4.34l-.02-.02-.02-.02c-1.57-1.46-3.68-2.19-6.32-2.19h-.8v-1.88l.08,1.88c-3.07.13-6.16.41-9.27.83l-9.33,1.24-4.29.6-.26-1.85.31,1.85c-.65.11-1.29.3-1.91.57-.72.31-1.42.66-2.1,1.03-1.64.89-2.78,1.9-3.4,3.03-.58,1.05-.73,2.27-.45,3.65l-1.84.37,1.8-.52c.21.73.26,1.45.15,2.15-.07.44-.14.86-.2,1.27l-.02.07-.11.47-1.82-.45,1.84.34c-.27,1.45-.52,2.89-.74,4.31-.23,1.44-.48,2.9-.76,4.37l-1.6,9.09c-.53,3.05-1.03,6.09-1.49,9.14-.52,3.6-.88,7.45-1.08,11.56-.19,3.96.26,7.91,1.33,11.85,1.59,5.79,4.97,9.2,10.14,10.24,9.71,1.92,18.64.91,26.77-3.03,1.79-.9,3.34-2.06,4.66-3.49.96-1.05,1.55-2.06,1.77-3.05.19-.9.06-1.83-.4-2.79-.56-1.22-1.28-1.97-2.15-2.24-1.19-.37-2.27-.53-3.24-.47Z"/>
      <path class="cls-1" d="M36.16,103.91c.22.68.28,1.49.19,2.42-.08.92-.34,1.64-.77,2.15-.39.52-1.02.88-1.88,1.08-.86.2-1.67.28-2.42.25-.75-.03-1.51-.21-2.27-.56-.75-.34-1.48-.68-2.19-1-1.02-.47-1.89-.58-2.63-.33-.74.24-1.24.83-1.52,1.79-1.11,3.47-2,7.04-2.67,10.69-.18.79-.2,1.63-.04,2.5.15.86.19,1.72.13,2.56-.1,1.85-.74,3.38-1.92,4.58-1.18,1.21-2.61,1.89-4.29,2.04-1.74.16-3.27-.26-4.6-1.23-1.32-.97-2.24-2.34-2.75-4.13-.11-.46-.22-.9-.31-1.33-.08-.44-.14-.92-.15-1.42-.1-4.42-.21-8.84-.33-13.29-.11-4.46-.22-8.9-.31-13.33-.02-.44-.01-.92.02-1.44.04-.53.21-.95.5-1.27.47-.61,1.01-1.26,1.6-1.94.59-.69,1.22-1.07,1.88-1.15.64-.08,1.34.1,2.13.56.79.46,1.48.97,2.06,1.52.46.49.8,1.11,1.04,1.88.25.77.54,1.55.88,2.35,4.67-2.76,9.38-3.02,14.15-.77,1.57.7,2.92,1.6,4.04,2.71,1.13,1.11,1.94,2.48,2.44,4.1Z"/>
      <path class="cls-1" d="M65.27,97.5c2.25.28,4.21,1.03,5.9,2.25,1.68,1.21,2.95,2.74,3.81,4.6.86,1.86,1.15,3.92.88,6.17-.27,2.7-.9,5.22-1.9,7.56-.99,2.33-2.42,4.48-4.29,6.44-3.08,3.18-6.89,4.83-11.4,4.94-1.56-.3-3.12-.57-4.69-.79-1.57-.23-3.11-.57-4.63-1-2.97-.96-5.17-2.55-6.58-4.79-1.42-2.25-1.95-4.92-1.6-8.02.43-3.63,1.55-6.82,3.38-9.58,1.83-2.78,4.28-5.17,7.35-7.17,2.64-1.68,5.51-2.15,8.6-1.4.84.22,1.71.4,2.58.52.88.11,1.73.2,2.58.27ZM63.59,111.96c.54-1.8.04-3.21-1.5-4.21-1.42-.93-2.5-1.52-3.25-1.77-.74-.26-1.4-.13-1.98.42s-1.33,1.53-2.23,2.96c-.29.46-.53.83-.71,1.13-1.36,2.58-1.75,4.38-1.17,5.38s2.32,1.53,5.21,1.58c1.47,0,2.6-.4,3.4-1.19.8-.8,1.55-2.23,2.23-4.29Z"/>
      <path class="cls-1" d="M112.37,102.4c2.29,4.31,3.19,8.9,2.69,13.77-.22,2.06-.91,3.97-2.04,5.75-1.14,1.78-2.6,3.29-4.38,4.54-1.78,1.25-3.74,2.16-5.9,2.73-2.14.57-4.33.72-6.56.44-.41-.04-.81-.09-1.23-.15-.42-.05-.93-.13-1.54-.21.07,2.1.15,4.13.23,6.08.08,1.97.14,3.9.17,5.79.03.79,0,1.58-.08,2.38-.08.8-.21,1.58-.38,2.33-.41,1.4-1.17,2.48-2.29,3.23-1.11.76-2.35,1.11-3.71,1.06-1.33-.11-2.52-.61-3.54-1.5-1.02-.88-1.7-2-2.04-3.38-.02-.06-.04-.14-.06-.23-.03-.1-.04-.2-.04-.29.18-3.75.13-7.5-.17-11.25-.29-3.73-.45-7.47-.48-11.21-.03-3.73.4-7.48,1.27-11.23.44-1.84.74-3.74.9-5.69.17-1.96.44-3.89.83-5.79.29-1.46.93-2.32,1.92-2.6.98-.28,2.04.09,3.17,1.1.11.1.23.21.35.33.13.11.24.24.35.4,1.17-.54,2.32-1.08,3.48-1.63,1.15-.54,2.34-.97,3.56-1.29,3.4-1.05,6.42-1.02,9.04.1s4.78,3.26,6.48,6.4ZM97.04,116.69c3.43.18,5.67-.51,6.73-2.08,1.07-1.58,1.17-4.11.31-7.6-.52-2.18-1.91-2.91-4.19-2.19-1.57.46-2.83,1.22-3.79,2.27-.95,1.04-1.77,2.24-2.48,3.6-1.27,2.42-1.68,4.01-1.25,4.77.43.77,1.98,1.18,4.67,1.23Z"/>
      <path class="cls-1" d="M8.19,159.72c-.47-1.76-.39-3.53.27-5.29.65-1.76,1.67-3.33,3.04-4.71,1.39-1.39,2.94-2.32,4.65-2.79.69-.18,1.59-.22,2.71-.13,1.13.08,2.24.35,3.35.79,1.13.45,1.99,1.05,2.6,1.81.63.77.76,1.7.42,2.81.58,1.77.49,3.55-.27,5.35-.77,1.79-1.91,3.35-3.44,4.69-1.53,1.32-3.2,2.22-5,2.69-1.79.46-3.45.31-4.98-.46-1.53-.76-2.65-2.35-3.35-4.77ZM19.76,214.19c-1.95,1.34-3.83,1.61-5.65.79-1.82-.83-3.2-2.21-4.15-4.15-.89-1.89-1.47-4.05-1.73-6.5-.27-2.44-.35-4.98-.27-7.63.09-2.65.26-5.24.5-7.77.23-2.53.44-4.76.63-6.71.11-1.23.22-2.66.33-4.27.13-1.63.39-3.23.79-4.81.42-1.59,1.07-2.86,1.96-3.81,1.29-1.34,2.65-1.97,4.06-1.88,1.42.08,2.76.61,4.02,1.58,1.26.96,2.21,2.18,2.85,3.65,1.47,3.18,2.31,6.73,2.52,10.65s.05,7.85-.48,11.79c-.53,3.93-1.12,7.55-1.77,10.85-.29,1.47-.64,2.96-1.02,4.46-.38,1.5-1.24,2.75-2.6,3.75Z"/>
      <path class="cls-1" d="M31.15,213.74c-1-1.11-1.71-2.55-2.13-4.31-.41-1.76-.62-3.66-.65-5.69-.03-2.04.03-4.01.17-5.92.15-1.92.26-3.55.31-4.9.11-1.59.17-3.53.17-5.79s.07-4.66.23-7.19c.15-2.53.46-5,.92-7.42.47-2.42,1.19-4.53,2.17-6.35.97-1.83,2.28-3.16,3.94-3.98,1.76-.88,3.51-1.1,5.25-.69,1.73.41,3.34,1.18,4.81,2.33,1.47,1.14,2.65,2.45,3.52,3.92,1.71,2.71,3.17,5.51,4.38,8.4,1.21,2.88,2.69,5.7,4.46,8.46-.06-1.4-.19-3-.4-4.79-.21-1.8-.31-3.63-.31-5.48s.22-3.63.67-5.29c.44-1.68,1.22-3.11,2.33-4.29,1.47-1.53,3.03-2.3,4.67-2.33,1.65-.03,3.13.5,4.42,1.58,1.3,1.08,2.07,2.63,2.31,4.63.4,2.71.76,5.8,1.08,9.27.33,3.47.48,7.04.46,10.69-.03,3.66-.31,7.19-.83,10.6-.53,3.41-1.41,6.43-2.65,9.08-1.36,2.88-2.85,4.56-4.48,5.06-1.61.5-3.3.2-5.06-.92-1.77-1.13-3.5-2.74-5.21-4.85-1.71-2.13-3.31-4.39-4.81-6.79-1.5-2.42-2.83-4.65-3.98-6.71-1.14-2.07-2.01-3.6-2.6-4.6-.11.6-.33,1.81-.67,3.63-.32,1.82-.74,3.91-1.27,6.27-.53,2.35-1.15,4.68-1.85,6.98-.71,2.29-1.52,4.27-2.44,5.92-.91,1.64-1.93,2.67-3.08,3.08-1.14.4-2.42-.13-3.83-1.6Z"/>
      <path class="cls-1" d="M83.76,208.44c-2.71-2.76-4.63-5.88-5.75-9.35-1.11-3.47-1.55-7.09-1.31-10.85.23-3.76,1.03-7.41,2.38-10.94,1.36-3.54,3.13-6.72,5.29-9.54.83-1.11,1.96-2.4,3.4-3.88,1.44-1.47,3.05-2.88,4.81-4.23,1.78-1.36,3.61-2.46,5.52-3.31,1.92-.86,3.76-1.28,5.52-1.25,1.76.03,3.38.75,4.85,2.17,1.65,1.58,2.67,3.31,3.04,5.17.39,1.85.15,3.52-.71,5.02-.85,1.5-2.3,2.58-4.35,3.23-2.66.77-5.11,2-7.38,3.71-2.27,1.71-4.1,3.77-5.52,6.19-1.42,2.41-2.21,5.08-2.38,8.02-.07,2.24.35,4.43,1.27,6.58.92,2.14,2.4,3.74,4.46,4.81.76.35,1.73.63,2.92.83,1.18.21,2.34.22,3.48.04,1.15-.18,1.99-.71,2.52-1.58.53-.89.69-1.53.48-1.94-.21-.42-.6-.73-1.19-.94s-1.22-.42-1.9-.63c-.68-.21-1.22-.54-1.63-1-.95-1-1.47-2.46-1.56-4.38-.08-1.92.17-3.49.75-4.73.78-1.58,1.9-2.67,3.35-3.25,1.47-.59,3.07-.8,4.81-.63,1.73.17,3.44.66,5.13,1.46,1.68.79,3.14,1.79,4.38,3,1.23,1.21,2.06,2.52,2.48,3.92,1.05,3.83,1.24,7.28.56,10.33-.68,3.06-2.01,5.69-3.98,7.9-1.97,2.21-4.35,3.92-7.15,5.13s-5.77,1.85-8.92,1.94c-3.14.08-6.24-.44-9.31-1.58-3.06-1.15-5.85-2.96-8.38-5.44Z"/>
    </g>
  </g>
</svg>